{"title":"Gangs of Wasseypur 2 2012 BRRip 720p x264 Hindi ESubs - ViZNU","uid":8202143,"size":905648163,"categoryP":"video","categoryS":"hd___movies","magnet":"?xt=urn:btih:331e82c137fada126538153b2e623e2593d4db02&amp;dn=Gangs+of+Wasseypur+2+2012+BRRip+720p+x264+Hindi+ESubs+-+ViZNU&amp;tr=udp%3A%2F%2Ftracker.openbittorrent.com%3A80&amp;tr=udp%3A%2F%2Fopen.demonii.com%3A1337&amp;tr=udp%3A%2F%2Ftracker.coppersurfer.tk%3A6969&amp;tr=udp%3A%2F%2Fexodus.desync.com%3A6969","seeders":7,"leechers":3,"uploader":"Vitamin_X","files":-1,"time":1362043477,"description":"_________________________  Visit us at _________________________\n  &lt;a href=&quot;\nhttp://p2pdl.com&quot; rel=&quot;nofollow&quot; target=&quot;_NEW&quot;&gt;\nhttp://p2pdl.com&lt;/a&gt;  ____________________________ &lt;a href=&quot; http://p2pdl.com&quot; rel=&quot;nofollow&quot; target=&quot;_NEW&quot;&gt; http://p2pdl.com&lt;/a&gt;\n\n &lt;a href=&quot;\nhttp://www.shotpix.com/images/63772952885754297953.jpg&quot; rel=&quot;nofollow&quot; target=&quot;_NEW&quot;&gt;\nhttp://www.shotpix.com/images/63772952885754297953.jpg&lt;/a&gt;\n\nGangs of Wasseypur 2 2012 BRRip 720p x264 Hindi ESubs - ViZNU\n\nGenre: Action | Crime | Drama | History | Thriller\nPlot: Shahid Khan's vow to get his father's honor back turns \nhim into the most feared man in the Indian town of Wasseypur.\nDirector: Anurag Kashyap\nStars:  Manoj Bajpayee, Richa Chadda, Nawazuddin Siddiqui\nRated: N/A\n\nInfo: &lt;a href=&quot;\nhttp://www.imdb.com/title/tt1954470/&quot; rel=&quot;nofollow&quot; target=&quot;_NEW&quot;&gt;\nhttp://www.imdb.com/title/tt1954470/&lt;/a&gt;\n &lt;a href=&quot;\nhttp://www.rottentomatoes.com/m/gangs_of_wasseypur/&quot; rel=&quot;nofollow&quot; target=&quot;_NEW&quot;&gt;\nhttp://www.rottentomatoes.com/m/gangs_of_wasseypur/&lt;/a&gt;\n\nGeneral\nComplete name                  : Gangs of Wasseypur 2 2012 BRRip 720p x264 Hindi ESubs - ViZNU.mp4\nFormat                         : MPEG-4\nFormat profile                 : Base Media\nCodec ID                       : isom\nFile size                      : 851 MiB\nDuration                       : 2h 39mn\nOverall bit rate mode          : Variable\nOverall bit rate               : 744 Kbps\n\nSource                         : 720p BluRay DDR (Thanks)\n\nVideo\nID                             : 1\nFormat                         : AVC\nFormat/Info                    : Advanced Video Codec\nBit rate                       : 661 Kbps\nMaximum bit rate               : 7 590 Kbps\nWidth                          : 1 280 pixels\nHeight                         : 544 pixels\nDisplay aspect ratio           : 2.35:1\nFrame rate mode                : Constant\nFrame rate                     : 24.000 fps\nColor space                    : YUV\nChroma subsampling             : 4:2:0\nBit depth                      : 10 bits\nScan type                      : Progressive\nBits/(Pixel*Frame)             : 0.040\nStream size                    : 756 MiB (89%)\nWriting library                : x264 core 129 r2245 bc13772\n\nAudio\nFormat                         : AAC\nBit rate mode                  : Variable\nBit rate                       : 79.6 Kbps\nChannel(s)                     : 2 channels\nChannel positions              : Front: L R\nSampling rate                  : 48.0 KHz / 24.0 KHz\nCompression mode               : Lossy\nStream size                    : 91.1 MiB (11%)\nLanguage                       : Hindi\n\nSubtitle                       : Yes ( English)\n\n\nScreens: &lt;a href=&quot;\nhttp://www.shotpix.com/images/82161082744892521210.jpg&quot; rel=&quot;nofollow&quot; target=&quot;_NEW&quot;&gt;\nhttp://www.shotpix.com/images/82161082744892521210.jpg&lt;/a&gt; &lt;a href=&quot;\nhttp://www.shotpix.com/images/44388883557982326469.jpg&quot; rel=&quot;nofollow&quot; target=&quot;_NEW&quot;&gt;\nhttp://www.shotpix.com/images/44388883557982326469.jpg&lt;/a&gt; &lt;a href=&quot;\nhttp://www.shotpix.com/images/49527468843483629534.jpg&quot; rel=&quot;nofollow&quot; target=&quot;_NEW&quot;&gt;\nhttp://www.shotpix.com/images/49527468843483629534.jpg&lt;/a&gt; &lt;a href=&quot;\nhttp://www.shotpix.com/images/92237790769408085609.jpg&quot; rel=&quot;nofollow&quot; target=&quot;_NEW&quot;&gt;\nhttp://www.shotpix.com/images/92237790769408085609.jpg&lt;/a&gt;\n\nThumbs: &lt;a href=&quot;\nhttp://www.shotpix.com/images/03698815089854210621.jpg&quot; rel=&quot;nofollow&quot; target=&quot;_NEW&quot;&gt;\nhttp://www.shotpix.com/images/03698815089854210621.jpg&lt;/a&gt;\n----------------------------------------------------------------------------------------------------\n\nRecommend to you to use latest version of VLC player. Install K-Lite Codec Pack or shark007 codecs\nin case of any kind of problem in playback (For non-VLC Media Player users). Alternatively, install\nCore AVC codecs, the fastest decoder that there is coupled with Community Center Codec Pack and play\non Windows Media Player Classic. Check sample to be sure.\nEnjoy!\n\nGreets to: VYTO, a2zRG, MusiK_KinG, Kuroyukihime, TorDigger, Ash968, StyLishSaLH, Masta and staff members at\nExtraTorrent, TPB, H33T, KAT, 1337x, PublicHD, Ahashare, BTScene, SilverTorrent, LimeTorrents, TorrentMafia,\nP2PDL, and all others.\n\nEncoder Notes: Looking For Early Access To Anything You Can Provide DVDScr, R5, DVDR, BluRay, Direct\nAudio, Early Music Releases, Seedboxes, Dedicated Servers anything u can provide, Advance / Promo CDs/\nDVDs. If You Got anything to offer contact me at &quot;&lt;a class=&quot;__cf_email__&quot; href=&quot;/cdn-cgi/l/email-protection&quot; data-cfemail=&quot;f9898b9eb9918c8a91d79a9694&quot;&gt;[email&amp;#160;protected]&lt;/a&gt;&lt;script cf-hash='f9e31' type=&quot;text/javascript&quot;&gt;\n/* &lt;![CDATA[ */!function(){try{var t=&quot;currentScript&quot;in document?document.currentScript:function(){for(var t=document.getElementsByTagName(&quot;script&quot;),e=t.length;e--;)if(t[e].getAttribute(&quot;cf-hash&quot;))return t[e]}();if(t&amp;&amp;t.previousSibling){var e,r,n,i,c=t.previousSibling,a=c.getAttribute(&quot;data-cfemail&quot;);if(a){for(e=&quot;&quot;,r=parseInt(a.substr(0,2),16),n=2;a.length-n;n+=2)i=parseInt(a.substr(n,2),16)^r,e+=String.fromCharCode(i);e=document.createTextNode(e),c.parentNode.replaceChild(e,c)}}}catch(u){}}();/* ]]&gt; */&lt;/script&gt;&quot;.","torrent":{"xt":"urn:btih:331e82c137fada126538153b2e623e2593d4db02","amp;dn":"Gangs+of+Wasseypur+2+2012+BRRip+720p+x264+Hindi+ESubs+-+ViZNU","amp;tr":["udp%3A%2F%2Ftracker.openbittorrent.com%3A80","udp%3A%2F%2Fopen.demonii.com%3A1337","udp%3A%2F%2Ftracker.coppersurfer.tk%3A6969","udp%3A%2F%2Fexodus.desync.com%3A6969"],"infoHash":"331e82c137fada126538153b2e623e2593d4db02","infoHashBuffer":{"type":"Buffer","data":[51,30,130,193,55,250,218,18,101,56,21,59,46,98,62,37,147,212,219,2]},"announce":[],"urlList":[]}}